<svg width="261" height="451" viewBox="0 0 261 451" fill="none" xmlns="http://www.w3.org/2000/svg">
<mask id="mask0_196_298" style="mask-type:alpha" maskUnits="userSpaceOnUse" x="0" y="0" width="261" height="451">
<rect x="0.947754" y="0.0883789" width="259.808" height="450" fill="#D9D9D9"/>
</mask>
<g mask="url(#mask0_196_298)">
<path fill-rule="evenodd" clip-rule="evenodd" d="M115.923 4.08839L0.947266 4.08838V-3.91162L130.851 -3.91161L260.755 -3.91161V4.08839L145.779 4.08839L262.755 71.6242L264.755 72.7789V75.0883L264.755 225.088L264.754 375.088L264.754 377.398L262.754 378.552L145.778 446.088H260.754V454.088H130.85L0.947752 454.088L0.947756 446.088L115.922 446.088L-1.05242 378.552L-3.05241 377.398L-3.05241 375.088L-3.05273 225.088L-3.05225 75.0886L-3.05224 72.7792L-1.05226 71.6245L115.923 4.08839ZM119.923 11.0167L4.94775 77.398L4.94731 210.16L119.923 11.0167ZM4.9473 240.017L4.94758 372.779L119.922 439.16L4.9473 240.017ZM141.778 439.16L256.754 372.779L256.755 240.016L141.778 439.16ZM256.755 210.16L256.755 77.3977L141.779 11.0166L256.755 210.16ZM126.851 15.0166L11.8755 214.16L126.851 147.779L126.851 15.0166ZM130.851 154.707L15.8755 221.088H245.827L130.851 154.707ZM245.826 229.088H15.8755L130.851 295.469L245.826 229.088ZM126.851 302.397L11.8754 236.016L126.85 435.16L126.851 302.397ZM134.85 435.16L249.826 236.016L134.851 302.397L134.85 435.16ZM249.827 214.16L134.851 15.0166L134.851 147.779L249.827 214.16Z" fill="#F3EFEF"/>
</g>
</svg>
