<svg width="1080" height="1080" viewBox="0 0 1080 1080" fill="none" xmlns="http://www.w3.org/2000/svg">
<path fill-rule="evenodd" clip-rule="evenodd" d="M-479.578 681.251C-515.196 724.801 -544.276 775.989 -545.943 830.378C-547.256 873.214 -525.764 906.454 -496.769 927.654C-470.867 946.591 -438.663 956.653 -408.199 962.663C-346.371 974.859 -263.263 975.5 -170.938 970.086C15.576 959.148 262.791 921.792 506.646 880.89C598.552 865.475 689.875 849.577 777.747 834.279C925.047 808.636 1062.65 784.681 1177.04 767.52C1199.52 764.147 1220.9 761.069 1241.1 758.316C1176.82 786.471 1099.84 816.847 1015.89 847.89C777.79 935.938 491.305 1026.58 300.097 1083.13L339.675 1217C532.576 1159.95 822.255 1068.33 1064.29 978.827C1185 934.19 1295.77 889.381 1377.14 849.099C1417.46 829.136 1453.32 808.949 1480.05 789.099C1493.31 779.256 1506.87 767.644 1517.75 754.195C1527.8 741.77 1542 719.862 1542 690.763C1542 658.105 1523.25 635.556 1505.79 623.704C1490.73 613.483 1474.56 609.248 1463.69 607.114C1440.99 602.658 1413.23 602.32 1385.31 603.468C1327.77 605.833 1248.18 615.686 1156.33 629.464C1040.56 646.833 899.88 671.319 751.134 697.208C663.593 712.445 573.258 728.168 483.563 743.213C239.348 784.175 -1.02317 820.282 -179.108 830.725C-269.083 836.002 -337.527 834.314 -381.193 825.701C-390.739 823.818 -397.852 821.831 -403.015 820.065C-398.715 808.509 -389.601 791.716 -371.547 769.641C-344.592 736.684 -303.396 698.935 -248.446 658.838C-138.804 578.833 17.9371 495.022 202.682 425.147C573.352 284.951 1042.9 205.936 1454.49 314.053L1489.94 179.031C1040.4 60.9444 539.628 148.458 153.315 294.571C-40.4311 367.851 -208.846 457.14 -330.706 546.061C-391.506 590.426 -442.648 636.098 -479.578 681.251ZM1409.24 666.394C1409.5 666.068 1409.42 666.121 1409.12 666.537C1409.17 666.48 1409.21 666.432 1409.24 666.394ZM1437.29 744.201C1437.68 744.317 1437.89 744.364 1437.9 744.358C1437.91 744.352 1437.72 744.294 1437.29 744.201Z" fill="white"/>
</svg>
