<svg width="1080" height="1080" viewBox="0 0 1080 1080" fill="none" xmlns="http://www.w3.org/2000/svg">
<path opacity="0.5" d="M1054.54 -97V116.5H1100.04L1085.54 192.5H1054.54V259H960.543V193H819.543V120.5L937.543 -104L1054.54 -97ZM960.543 116.5V1.49998L898.543 116.5H960.543Z" fill="white"/>
<path opacity="0.5" d="M647.684 95.5C658.35 81.5 667.684 66.8333 675.684 51.5C683.684 36.1667 687.684 22 687.684 9.00002C687.684 -2.99998 683.017 -11.3333 673.684 -16C664.35 -21 653.017 -23.5 639.684 -23.5C630.684 -23.5 621.184 -22.6666 611.184 -21C601.184 -19.3333 591.85 -17 583.184 -14L568.184 -87.5C586.184 -93.1667 604.017 -97.5 621.684 -100.5C639.35 -103.5 656.017 -105 671.684 -105C694.35 -105 714.35 -101.667 731.684 -95C749.35 -88.3333 763.184 -77.6667 773.184 -63C783.184 -48.6667 788.184 -29.6667 788.184 -5.99999C788.184 14.3333 783.85 34.1667 775.184 53.5C766.517 72.5 755.35 90.8333 741.684 108.5L687.684 179H794.684V259H571.184V196L647.684 95.5Z" fill="white"/>
<path opacity="0.5" d="M394.801 -105C442.134 -105 476.301 -90.6667 497.301 -62C518.301 -33.3333 528.801 13 528.801 77C528.801 141 518.301 188.167 497.301 218.5C476.301 248.833 442.134 264 394.801 264C347.467 264 313.301 248.833 292.301 218.5C271.634 188.167 261.301 141 261.301 77C261.301 13 271.634 -33.3333 292.301 -62C313.301 -90.6667 347.467 -105 394.801 -105ZM394.801 186.5C405.134 186.5 412.467 177.5 416.801 159.5C421.467 141.167 423.801 113.667 423.801 77C423.801 40.3333 421.467 13.8333 416.801 -2.49998C412.467 -19.1666 405.134 -27.5 394.801 -27.5C384.467 -27.5 376.967 -19.1666 372.301 -2.49998C367.967 13.8333 365.801 40.3333 365.801 77C365.801 113.667 367.967 141.167 372.301 159.5C376.967 177.5 384.467 186.5 394.801 186.5Z" fill="white"/>
<path opacity="0.5" d="M74.4414 95.5C85.1081 81.5 94.4414 66.8333 102.441 51.5C110.441 36.1667 114.441 22 114.441 9.00002C114.441 -2.99998 109.775 -11.3333 100.441 -16C91.1081 -21 79.7747 -23.5 66.4414 -23.5C57.4414 -23.5 47.9414 -22.6666 37.9414 -21C27.9414 -19.3333 18.6081 -17 9.94141 -14L-5.05859 -87.5C12.9414 -93.1667 30.7747 -97.5 48.4414 -100.5C66.1081 -103.5 82.7748 -105 98.4414 -105C121.108 -105 141.108 -101.667 158.441 -95C176.108 -88.3333 189.941 -77.6667 199.941 -63C209.941 -48.6667 214.941 -29.6667 214.941 -5.99999C214.941 14.3333 210.608 34.1667 201.941 53.5C193.275 72.5 182.108 90.8333 168.441 108.5L114.441 179H221.441V259H-2.05859V196L74.4414 95.5Z" fill="white"/>
<path d="M1093.57 610.8C1093.57 651.013 1081.95 682.387 1058.73 704.92C1035.5 727.107 997.541 738.2 944.847 738.2C926.474 738.2 908.794 736.467 891.807 733C875.167 729.187 860.434 725.027 847.607 720.52L858.527 640.96C873.434 646.507 888.687 650.667 904.287 653.44C919.887 656.213 934.274 656.907 947.447 655.52C960.621 654.133 971.194 649.973 979.167 643.04C987.487 636.107 991.647 625.707 991.647 611.84C991.647 599.013 987.661 589.48 979.688 583.24C971.714 577 961.314 573.013 948.487 571.28C936.007 569.547 922.314 569.027 907.407 569.72C892.847 570.413 878.981 571.107 865.807 571.8V358.6H1087.33L1069.13 452.2H958.367V502.12C966.341 501.427 974.487 501.08 982.807 501.08C1015.74 501.08 1042.43 509.747 1062.89 527.08C1083.34 544.413 1093.57 572.32 1093.57 610.8Z" fill="white"/>
<path d="M673.553 562.96C684.646 548.4 694.353 533.147 702.673 517.2C710.993 501.253 715.153 486.52 715.153 473C715.153 460.52 710.3 451.853 700.593 447C690.886 441.8 679.1 439.2 665.233 439.2C655.873 439.2 645.993 440.067 635.593 441.8C625.193 443.533 615.486 445.96 606.473 449.08L590.873 372.64C609.593 366.747 628.14 362.24 646.513 359.12C664.886 356 682.22 354.44 698.513 354.44C722.086 354.44 742.886 357.907 760.913 364.84C779.286 371.773 793.673 382.867 804.073 398.12C814.473 413.027 819.673 432.787 819.673 457.4C819.673 478.547 815.166 499.173 806.153 519.28C797.14 539.04 785.526 558.107 771.313 576.48L715.153 649.8H826.433V733H593.993V667.48L673.553 562.96Z" fill="white"/>
<path d="M410.555 354.44C459.782 354.44 495.315 369.347 517.155 399.16C538.995 428.973 549.915 477.16 549.915 543.72C549.915 610.28 538.995 659.333 517.155 690.88C495.315 722.427 459.782 738.2 410.555 738.2C361.328 738.2 325.795 722.427 303.955 690.88C282.462 659.333 271.715 610.28 271.715 543.72C271.715 477.16 282.462 428.973 303.955 399.16C325.795 369.347 361.328 354.44 410.555 354.44ZM410.555 657.6C421.302 657.6 428.928 648.24 433.435 629.52C438.288 610.453 440.715 581.853 440.715 543.72C440.715 505.587 438.288 478.027 433.435 461.04C428.928 443.707 421.302 435.04 410.555 435.04C399.808 435.04 392.008 443.707 387.155 461.04C382.648 478.027 380.395 505.587 380.395 543.72C380.395 581.853 382.648 610.453 387.155 629.52C392.008 648.24 399.808 657.6 410.555 657.6Z" fill="white"/>
<path d="M77.3812 562.96C88.4745 548.4 98.1812 533.147 106.501 517.2C114.821 501.253 118.981 486.52 118.981 473C118.981 460.52 114.128 451.853 104.421 447C94.7145 441.8 82.9278 439.2 69.0612 439.2C59.7012 439.2 49.8212 440.067 39.4212 441.8C29.0212 443.533 19.3145 445.96 10.3012 449.08L-5.29883 372.64C13.4212 366.747 31.9678 362.24 50.3412 359.12C68.7145 356 86.0478 354.44 102.341 354.44C125.915 354.44 146.715 357.907 164.741 364.84C183.115 371.773 197.501 382.867 207.901 398.12C218.301 413.027 223.501 432.787 223.501 457.4C223.501 478.547 218.995 499.173 209.981 519.28C200.968 539.04 189.355 558.107 175.141 576.48L118.981 649.8H230.261V733H-2.17883V667.48L77.3812 562.96Z" fill="white"/>
<path opacity="0.5" d="M1088.5 1062C1088.5 1103.67 1078.16 1135.67 1057.5 1158C1037.16 1180.33 1005.83 1191.5 963.496 1191.5C921.163 1191.5 888.163 1178.17 864.496 1151.5C840.829 1124.5 828.996 1081.33 828.996 1022C828.996 995.667 831.663 970.667 836.996 947C842.329 923 851.329 901.833 863.996 883.5C876.663 864.833 893.829 850.167 915.496 839.5C937.163 828.833 964.163 823.5 996.496 823.5C1007.83 823.5 1019 824.167 1030 825.5C1041 826.833 1051.5 828.5 1061.5 830.5L1052 909.5C1033.33 905.833 1017.33 904 1004 904C981.329 904 964.829 908.833 954.496 918.5C944.163 928.167 937.329 943.833 933.996 965.5C944.663 961.167 954.996 957.833 964.996 955.5C974.996 953.167 984.663 952 993.996 952C1021.66 952 1044.33 961.333 1062 980C1079.66 998.667 1088.5 1026 1088.5 1062ZM955.996 1021.5C948.996 1021.5 940.663 1022.83 930.996 1025.5C930.996 1054.17 931.663 1075.67 932.996 1090C934.329 1104.33 937.163 1114 941.496 1119C945.829 1123.67 952.496 1126 961.496 1126C969.829 1126 976.663 1121.5 981.996 1112.5C987.663 1103.17 990.496 1090.67 990.496 1075C990.496 1055.67 987.829 1042 982.496 1034C977.496 1025.67 968.663 1021.5 955.996 1021.5Z" fill="white"/>
<path opacity="0.5" d="M649.637 1023.5C660.303 1009.5 669.637 994.833 677.637 979.5C685.637 964.167 689.637 950 689.637 937C689.637 925 684.97 916.667 675.637 912C666.303 907 654.97 904.5 641.637 904.5C632.637 904.5 623.137 905.333 613.137 907C603.137 908.667 593.803 911 585.137 914L570.137 840.5C588.137 834.833 605.97 830.5 623.637 827.5C641.303 824.5 657.97 823 673.637 823C696.303 823 716.303 826.333 733.637 833C751.303 839.667 765.137 850.333 775.137 865C785.137 879.333 790.137 898.333 790.137 922C790.137 942.333 785.803 962.167 777.137 981.5C768.47 1000.5 757.303 1018.83 743.637 1036.5L689.637 1107H796.637V1187H573.137V1124L649.637 1023.5Z" fill="white"/>
<path opacity="0.5" d="M396.754 823C444.087 823 478.254 837.333 499.254 866C520.254 894.667 530.754 941 530.754 1005C530.754 1069 520.254 1116.17 499.254 1146.5C478.254 1176.83 444.087 1192 396.754 1192C349.421 1192 315.254 1176.83 294.254 1146.5C273.587 1116.17 263.254 1069 263.254 1005C263.254 941 273.587 894.667 294.254 866C315.254 837.333 349.421 823 396.754 823ZM396.754 1114.5C407.087 1114.5 414.421 1105.5 418.754 1087.5C423.421 1069.17 425.754 1041.67 425.754 1005C425.754 968.333 423.421 941.833 418.754 925.5C414.421 908.833 407.087 900.5 396.754 900.5C386.421 900.5 378.921 908.833 374.254 925.5C369.921 941.833 367.754 968.333 367.754 1005C367.754 1041.67 369.921 1069.17 374.254 1087.5C378.921 1105.5 386.421 1114.5 396.754 1114.5Z" fill="white"/>
<path opacity="0.5" d="M76.3945 1023.5C87.0612 1009.5 96.3945 994.833 104.395 979.5C112.395 964.167 116.395 950 116.395 937C116.395 925 111.728 916.667 102.395 912C93.0612 907 81.7279 904.5 68.3945 904.5C59.3945 904.5 49.8945 905.333 39.8945 907C29.8945 908.667 20.5612 911 11.8945 914L-3.10547 840.5C14.8945 834.833 32.7279 830.5 50.3945 827.5C68.0612 824.5 84.7279 823 100.395 823C123.061 823 143.061 826.333 160.395 833C178.061 839.667 191.895 850.333 201.895 865C211.895 879.333 216.895 898.333 216.895 922C216.895 942.333 212.561 962.167 203.895 981.5C195.228 1000.5 184.061 1018.83 170.395 1036.5L116.395 1107H223.395V1187H-0.105469V1124L76.3945 1023.5Z" fill="white"/>
<path fill-rule="evenodd" clip-rule="evenodd" d="M1756.62 443.476C1808.1 367.233 1847.8 279.525 1842.39 190.694C1838.14 120.732 1798.19 69.7997 1747.83 39.5982C1702.84 12.6191 1648.92 1.03534 1598.43 -4.20722C1495.97 -14.8473 1360.59 -3.49423 1211.12 19.0971C909.149 64.7361 512.317 162.457 121.483 265.452C-25.8177 304.269 -172.097 343.787 -312.848 381.81C-548.79 445.549 -769.196 505.092 -952.834 550.107C-988.93 558.955 -1023.27 567.156 -1055.73 574.653C-955.313 519.209 -834.531 458.25 -702.522 395.169C-328.092 216.246 124.709 25.8837 427.509 -94.7459L343.104 -306.874C37.6212 -185.176 -420.233 7.25263 -800.851 189.133C-990.675 279.842 -1164.3 369.346 -1290.73 447.09C-1353.38 485.62 -1408.74 523.846 -1449.29 560.165C-1469.4 578.173 -1489.74 599.109 -1505.44 622.636C-1519.95 644.371 -1539.79 682.172 -1535.45 729.565C-1530.58 782.754 -1496.69 816.682 -1466.49 833.381C-1440.45 847.781 -1413.5 852.266 -1395.49 854.12C-1357.87 857.99 -1312.64 854.4 -1267.37 848.366C-1174.06 835.931 -1045.97 808.009 -898.527 771.868C-712.668 726.308 -487.328 665.441 -249.068 601.085C-108.846 563.21 35.8511 524.125 179.608 486.242C571.019 383.095 956.897 288.43 1245.22 244.853C1390.89 222.837 1502.55 215.375 1574.91 222.89C1590.73 224.532 1602.61 226.708 1611.28 228.813C1606 248.276 1593.67 276.986 1567.58 315.631C1528.62 373.331 1467.2 440.956 1383.74 514.459C1217.21 661.119 974.584 821.003 684.292 962.368C101.855 1246 -650.67 1444.74 -1336.77 1330.05L-1374.33 1555.25C-624.957 1680.51 177.122 1463.27 784.14 1167.67C1088.58 1019.42 1349.39 848.87 1534.47 685.867C1626.82 604.539 1703.25 522.525 1756.62 443.476ZM-1315.71 749.449C-1316.09 750.019 -1315.97 749.921 -1315.53 749.198C-1315.61 749.298 -1315.66 749.382 -1315.71 749.449ZM-1372.99 626.91C-1373.63 626.779 -1373.99 626.735 -1374 626.746C-1374.02 626.757 -1373.69 626.823 -1372.99 626.91Z" fill="white"/>
</svg>
